<svg xmlns="http://www.w3.org/2000/svg" viewBox="0 0 526 175.33">
  <defs>
    <style>
      .cls-1 {
        fill: #333;
      }

      .cls-2 {
        fill: #e1b158;
      }

      .cls-3, .cls-4 {
        font-size: 94.73px;
      }

      .cls-3, .cls-4, .cls-8 {
        fill: #fff;
        font-family: Raleway-Black, Raleway Black;
      }

      .cls-4 {
        letter-spacing: 0.07em;
      }

      .cls-5 {
        letter-spacing: 0.04em;
      }

      .cls-6, .cls-7 {
        fill: none;
        stroke-linecap: round;
        stroke-linejoin: round;
      }

      .cls-6 {
        stroke: #e1b158;
        stroke-width: 4px;
      }

      .cls-7 {
        stroke: #fff;
        stroke-width: 2px;
      }

      .cls-8 {
        font-size: 21.37px;
        letter-spacing: 1.37em;
      }

      .cls-9 {
        letter-spacing: 1.34em;
      }

      .cls-10 {
        letter-spacing: 1.37em;
      }

      .cls-11 {
        letter-spacing: 1.34em;
      }
    </style>
  </defs>
  <title>sAsset 4range</title>
  <g id="Layer_2" data-name="Layer 2">
    <g id="Layer_1-2" data-name="Layer 1">
      <rect class="cls-1" width="526" height="175.33"/>
      <g>
        <path id="_Compound_Path_" data-name="&lt;Compound Path&gt;" class="cls-2" d="M179.62,99a33.9,33.9,0,1,0-33.9-33.89A34,34,0,0,0,179.62,99Zm0-52.66a18.77,18.77,0,1,1-18.77,18.77A18.69,18.69,0,0,1,179.62,46.38Z"/>
        <rect id="_Path_" data-name="&lt;Path&gt;" class="cls-2" x="149.11" y="107.4" width="60.22" height="15.09"/>
        <path id="_Compound_Path_2" data-name="&lt;Compound Path&gt;" class="cls-2" d="M179.54,102.88a37.67,37.67,0,1,0-37.68-37.66A37.71,37.71,0,0,0,179.54,102.88Zm0-73.26A35.59,35.59,0,1,1,144,65.22,35.58,35.58,0,0,1,179.54,29.62Z"/>
        <text class="cls-3" transform="translate(60 98.56)">H</text>
        <text class="cls-4" transform="translate(228.4 98.56)">STE<tspan class="cls-5" x="194" y="0">L</tspan></text>
      </g>
      <rect class="cls-6" x="2.33" y="3.67" width="520" height="165.87"/>
      <rect class="cls-7" x="11.58" y="12.63" width="501.68" height="147.55"/>
      <text class="cls-8" transform="translate(62.43 151.22)">MAN<tspan class="cls-9" x="136.45" y="0">A</tspan><tspan class="cls-10" x="179.36" y="0">GEMEN</tspan><tspan class="cls-11" x="401.41" y="0">T</tspan></text>
    </g>
  </g>
</svg>
